<?xml version="1.0" encoding="utf-8"?>
<!-- Generator: Adobe Illustrator 27.5.0, SVG Export Plug-In . SVG Version: 6.00 Build 0)  -->
<svg version="1.1" id="Layer_1" xmlns="http://www.w3.org/2000/svg" xmlns:xlink="http://www.w3.org/1999/xlink" x="0px" y="0px"
	 viewBox="0 0 841.9 220.2" style="enable-background:new 0 0 841.9 220.2;" xml:space="preserve">
<style type="text/css">
	.st0{fill:#FFFFFF;}
	.st1{fill:none;stroke:#000000;stroke-width:1.200000e-02;}
</style>
<g>
	<path d="M344.4,149.2c0-1.7-1.1-3-3.4-3.4v-1.1c1.3,0,5.4,0.2,6.6,0.2c1,0,5.1-0.2,6.3-0.2v1.1c-2.1,0.4-3.2,1.7-3.2,3.4v21.6
		c0,6.8,3.8,10.7,11.6,10.7c6.8,0,12-3,12-10.2v-22.2c0-1.6-1-2.9-3.5-3.4v-1.1c0.9,0,4.4,0.2,5.6,0.2c1,0,4.6-0.2,5.6-0.2v1.1
		c-2.4,0.6-3.5,1.7-3.5,3.4v21c0,9.4-5.5,14.8-17.3,14.8c-11,0-16.7-5-16.7-13.9V149.2z"/>
	<path d="M391.6,183.2c2.6-0.5,3.6-1.8,3.6-3.4V150c0-2.5-1.3-3.7-3.6-4.3v-1.1c1.3,0.1,3.5,0.2,4.6,0.2c1,0,2.6,0,3.6-0.2
		l25.9,30.4v-26c0-1.6-1-2.9-3.5-3.4v-1.1c0.9,0,4.3,0.2,5.4,0.2c1,0,4.6-0.2,5.5-0.2v1.1c-2.5,0.6-3.7,1.7-3.7,3.4v35.8h-1.6
		c-1-0.2-2.8-1.3-5.7-4.4l-23.1-27v26.3c0,1.6,0.9,2.9,3.4,3.4v1.1c-0.9,0-4.3-0.2-5.4-0.2c-1,0-4.5,0.2-5.5,0.2V183.2z"/>
	<path d="M595.8,175.1h1.1c0.6,2.2,1.9,4.3,3.6,5.4c1.9,1.3,4.8,1.9,7.1,1.9c5.2,0,8.5-2.6,8.5-6.7c0-4.2-4.2-6.4-9.3-8.9
		c-3.8-1.9-11.2-5-11.2-12.1c0-6.7,5.1-10.8,13.2-10.8c5.4,0,7.9,1.3,11.5,1.1l-0.1,8.1h-1.1c-1.4-4.8-5.8-6.4-10.5-6.4
		c-5.3,0-7.3,3-7.3,6.1c0,4.4,4.3,6.6,9.2,8.8c5.5,2.5,11.5,5.5,11.5,12.4c0,6.5-5.1,11.2-14.4,11.2c-5.5,0-8.9-1.6-11.8-1.9
		L595.8,175.1z"/>
	<path d="M713,166.2v13.5c0,1.3,1,3,3.3,3.4v1.1c-1.3,0-5.5-0.2-6.7-0.2c-1,0-5,0.2-6.5,0.2v-1.1c2.3-0.4,3.4-2.1,3.4-3.4v-12.9
		 M706.9,167.9L696.4,151c-1.8-3-3.2-4.5-5.2-5.3v-1.1c1.4,0,5.3,0.2,6.5,0.2c1,0,5.2-0.2,6.7-0.2v1.1c-1.3,0.2-2,0.9-2,1.9
		c0,0.9,0.6,2,1.2,3.1c0.6,1,7.8,12.9,7.8,12.9l7.5-12.9c0.8-1.3,1.3-2.6,1.3-3.4c0-0.8-0.5-1.4-1.8-1.6v-1.1c1.3,0,3.9,0.2,4.8,0.2
		s3.9-0.2,5.2-0.2v1c-2.9,1.2-4.7,3.7-6.4,6.6l-9.6,16"/>
	<path d="M511.2,144.6h24.7c0.8,0,2.1-0.1,2.9-0.4h1.1l-0.2,8h-1.1c-0.9-2.5-1.9-4.5-6.7-4.5h-10.7v14h8.3c1.2,0,2.7-0.1,3.3-0.3
		c1.9-0.4,2.7-1.4,3.1-3h1.1c-0.1,1.2-0.1,4-0.1,4.8c0,0.8,0.1,3.7,0.1,5h-1.1c-0.5-1.6-1.3-2.8-3.1-3.2c-0.6-0.2-2.1-0.3-3.3-0.3
		h-8.3v16.4h11.7c5.1,0,6.6-2.1,7.8-5.1l1.1,0.3l-1.1,8.2c-3.8-0.3-6.1-0.3-10.4-0.3H518c-1.2,0-5.5,0.2-6.8,0.2v-1.1
		c2.2-0.4,3.5-1.5,3.5-3.7v-30.3c0-1.9-1-3.1-3.5-3.5V144.6z"/>
	<path d="M448.1,149.4c0-2-1.2-3.2-3.6-3.7v-1.1c1.3,0,5.6,0.2,6.9,0.2c1,0,5.5-0.2,6.8-0.2v1.1c-2.4,0.5-3.6,1.5-3.6,3.7v30.1
		c0,2,1.2,3.1,3.6,3.6v1.1c-1.3,0-5.6-0.2-6.8-0.2c-1.1,0-5.5,0.2-6.9,0.2v-1.1c2.4-0.5,3.6-1.5,3.6-3.6V149.4z"/>
	<path d="M635.5,149.4c0-2-1.2-3.2-3.6-3.7v-1.1c1.3,0,5.6,0.2,6.9,0.2c1.1,0,5.5-0.2,6.8-0.2v1.1c-2.4,0.5-3.6,1.5-3.6,3.7v30.1
		c0,2,1.2,3.1,3.6,3.6v1.1c-1.3,0-5.5-0.2-6.8-0.2c-1,0-5.5,0.2-6.9,0.2v-1.1c2.4-0.5,3.6-1.5,3.6-3.6V149.4z"/>
	<path d="M669.8,144.8c-13.5,0-15.7-0.3-18.5-0.4l0,8.2h1.1c1-3.6,3-4.5,5.6-4.5h8.5v31.5c0,2.1-1.2,3.2-3.6,3.6v1.1
		c1.3,0,5.8-0.2,6.9-0.2c1.2,0,5.5,0.2,6.8,0.2v-1.1c-2.4-0.5-3.6-1.6-3.6-3.6v-31.5h8.4c2.7,0,4.6,0.9,5.7,4.5h1.1l0-8.2
		C685.6,144.5,683.4,144.8,669.8,144.8"/>
	<path d="M561.8,163.4c1.3,0.2,3.1,0.3,5,0.3c7.4,0,9.8-4.3,9.8-8.1c0-5.4-3.6-8.7-10.1-8.7c-1.3,0-3.3,0.2-4.7,0.4V163.4z
		 M561.8,179.5c0,2,1.3,3.1,3.7,3.6v1.1c-1.3,0-5.7-0.2-6.9-0.2c-1.1,0-5.3,0.2-6.6,0.2v-1.1c2.2-0.4,3.5-1.5,3.5-3.6v-30.4
		c0-1.9-1-3.1-3.5-3.5v-1.1c1.3,0,5.5,0.2,6.7,0.2c1.9,0,7.4-0.3,9.6-0.3c9.5,0,14.8,3.9,14.8,10.7c0,5.3-3.9,8.9-10,10.3
		c0,0,1.4,0.8,2.8,2.4c1.7,2,6.2,8.5,8.1,10.7c1.9,2.3,4.3,4.8,6.8,4.9v0.9c-1.2,0.3-3.2,0.5-4.7,0.5c-3.2,0-5.8-1.1-8.3-4.2
		c-2.2-2.6-5.8-8.1-8-10.9c-1.4-1.8-3.1-3.1-6.1-3.6c-0.6-0.1-1.2-0.2-1.8-0.3V179.5z"/>
	<path d="M467.7,149.5c-0.9-1.9-2.2-3.3-4.5-3.8v-1.1c1.4,0,6.3,0.2,7.4,0.2c1,0,5.2-0.2,6.7-0.2v1.1c-1.3,0.2-2.8,1-2.8,2.3
		c0,0.9,0.6,2.2,1.7,4.6l10.2,23.3l9.7-23.3c0.8-1.9,1.3-3.3,1.3-4.5c0-1.2-1.1-2.1-2.7-2.4v-1.1c1.3,0,4.4,0.2,5.4,0.2
		c0.9,0,4.6-0.2,6-0.2v1.1c-2.4,0.7-3.9,2-5.2,5.1l-14.2,33.6h-3.2L467.7,149.5z"/>
	<path d="M504.2,43.6c-1.6-3.6-4.2-6.3-8.5-7.2v-2.1c2.7,0,11.5,0.3,13.5,0.3c1.9,0,10.4-0.3,13.2-0.3v2.1c-2.4,0.5-5.2,1.8-5.2,4.3
		c0,1.8,1.1,4.2,3.1,8.8l19.4,44.1l18.4-44.2c1.4-3.6,2.5-6.3,2.5-8.4c0-2.3-2.2-3.9-5.2-4.6v-2.1c2.4,0,8.3,0.3,10.2,0.3
		c1.7,0,8.7-0.3,11.4-0.3v2c-4.6,1.2-7.4,3.9-9.9,9.8l-27,63.7H534L504.2,43.6z"/>
	<path d="M243.1,107.3c3.5-0.8,6-2.4,6-6.4V42.6c0-3.8-2.3-5.4-6-6.4v-2.1c1.8,0,9.8,0.3,11.8,0.3c2.2,0,10.6-0.3,12.4-0.3v2.1
		c-3.5,0.8-6.1,2.4-6.1,6.4V67h43.5V42.6c0-4-2.3-5.6-6-6.4v-2.1c1.8,0,10,0.3,12.3,0.3c1.9,0,10.1-0.3,11.9-0.3v2.1
		c-3.5,0.8-6.1,2.4-6.1,6.4v58.4c0,3.8,2.5,5.4,6.1,6.4v1.9c-1.8,0-10-0.2-11.9-0.2c-2.2,0-10.4,0.2-12.3,0.2v-1.9
		c3.5-0.8,6-2.4,6-6.4V73.4h-43.5v27.6c0,4,2.4,5.4,6.1,6.4v1.9c-1.8,0-10.2-0.2-12.4-0.2c-1.9,0-9.9,0.2-11.8,0.2V107.3z"/>
	<path d="M765,103.5c2.7,0.5,7.8,0.8,11.7,0.8c22.5,0,34.2-13.5,34.2-32.4c0-19.6-12.3-33.3-33.3-33.3c-4.3,0-9.7,0.3-12.5,0.8
		V103.5z M746,107.3c4.5-0.8,7-2.6,7-6.7v-58c0-4-2.5-5.6-6.8-6.4v-2.1c2.5,0,10.7,0.3,13,0.3c3.7,0,13.9-0.8,21.8-0.8
		c26.7,0,43,14.9,43,37.6c0,22.1-16.9,38.4-44.5,38.4c-8,0-17.4-0.6-21.1-0.6c-2.2,0-9.9,0.3-12.4,0.3V107.3z"/>
	<path d="M443.2,69.8c2.4,0.3,5.9,0.5,9.4,0.5c14.1,0,18.5-8.1,18.5-15.2c0-10.2-6.8-16.4-19.1-16.4c-2.5,0-6.2,0.3-8.8,0.8V69.8z
		 M443.2,100.4c0,3.9,2.5,6,7,6.9v2.1c-2.5,0-10.7-0.3-13-0.3c-2,0-10,0.3-12.5,0.3v-2.1c4.2-0.8,6.7-2.9,6.7-6.9V42.8
		c0-3.5-1.9-5.8-6.6-6.6v-2.1c2.5,0,10.4,0.3,12.7,0.3c3.7,0,14.1-0.6,18.2-0.6c18,0,28,7.4,28,20.2c0,10-7.5,16.8-18.9,19.6
		c0,0,2.6,1.5,5.2,4.6c3.2,3.7,11.9,16.3,15.5,20.6c3.5,4.3,8.1,9.1,12.9,9.3v1.7c-2.3,0.5-6.1,0.9-8.9,0.9c-6.1,0-11-2.1-15.7-7.9
		c-4.1-5-11.2-15.6-15.3-20.8c-2.6-3.3-5.8-5.9-11.6-6.9c-1.1-0.2-2.2-0.3-3.5-0.5V100.4z"/>
	<path d="M680.3,69.8c2.4,0.3,5.9,0.5,9.4,0.5c14.1,0,18.5-8.1,18.5-15.2c0-10.2-6.8-16.4-19.1-16.4c-2.6,0-6.2,0.3-8.8,0.8V69.8z
		 M680.3,100.4c0,3.9,2.5,6,7,6.9v2.1c-2.5,0-10.7-0.3-13-0.3c-2,0-10,0.3-12.5,0.3v-2.1c4.2-0.8,6.6-2.9,6.6-6.9V42.8
		c0-3.5-1.9-5.8-6.6-6.6v-2.1c2.5,0,10.4,0.3,12.7,0.3c3.7,0,14.1-0.6,18.2-0.6c18,0,28,7.4,28,20.2c0,10-7.5,16.8-18.9,19.6
		c0,0,2.6,1.5,5.2,4.6c3.2,3.7,12,16.3,15.5,20.6c3.6,4.3,8.1,9.1,12.9,9.3v1.7c-2.3,0.5-6,0.9-8.9,0.9c-6.1,0-11-2.1-15.8-7.9
		c-4.1-5-11.2-15.6-15.3-20.8c-2.6-3.3-5.8-5.9-11.5-6.9c-1.2-0.2-2.2-0.3-3.5-0.5V100.4z"/>
	<path d="M382.1,79.2l-12-27.9L359,79.2H382.1z M334.2,107.3c4.8-1.1,7.4-4.2,9.1-8.3l24.1-57.9c1-2.4,2.2-7.3,2.2-7.3h6.7
		c0,0,1.2,4.9,2.2,7.3L404,99.2c1.8,4,3.8,6.9,8.8,8.2l0,1.9c-2.8,0-11.3-0.2-13.3-0.2c-1.9,0-10.1,0.2-12.9,0.2l0-1.9
		c3.7-0.9,4.9-2.8,4.9-4.6c0-1.5-0.6-3.3-1.4-5.1l-5.5-12.5h-28l-5,12.5c-0.6,1.4-1.2,3.4-1.2,4.8c0,2.1,1.1,3.8,5.3,4.9l0,1.9
		c-2.5,0-9.1-0.2-10.6-0.2l-10.9,0.2L334.2,107.3z"/>
	<path d="M620.7,79.2l-12-27.9l-11.1,27.9H620.7z M572.8,107.3c4.8-1.1,7.4-4.2,9.1-8.3l24.1-57.9c1-2.4,2.2-7.3,2.2-7.3h6.7
		c0,0,1.2,4.9,2.2,7.3l25.5,58.1c1.8,4,3.8,6.9,8.8,8.2l0,1.9c-2.7,0-11.3-0.2-13.3-0.2c-1.9,0-10.1,0.2-12.9,0.2v-1.9
		c3.7-0.9,4.9-2.8,4.9-4.6c0-1.5-0.6-3.3-1.4-5.1l-5.5-12.5h-28l-5,12.5c-0.6,1.4-1.2,3.4-1.2,4.8c0,2.1,1.1,3.8,5.3,4.9v1.9
		c-2.5,0-9.1-0.2-10.6-0.2l-10.9,0.2L572.8,107.3z"/>
	<path d="M20.7,10.7h167.9v63.4c0,29.1-10.8,90.7-83.3,136.5c0,0-78.6-32.8-84.6-136.5V10.7z"/>
	<path class="st0" d="M147.8,92.2c0,0-1.5,4.8-8.2-0.1l-22.9-0.6c0,0-3,1-3.4-2.2c0,0,0.5-6.3,0.3-6.8c0,0,0.1-1.8-2.9-1.8
		c0,0-4.6,0.5-4.8-3.5c0,0-0.8-4.4,5.6-4.2c0,0,2,0.9,2.2-1.6c0,0-0.3-17.7-0.1-19c0,0,0.5-1.6-2.6-1.9c0,0-4.5,0.9-5-2
		c0,0-0.3-4.5,2.7-4.8c0,0,3.7,0.3,4.3-0.7c0,0,0.8,0.5,0.7-2.7l0.1-5.6c0,0,0.4-1.5,2.7-1.3c0,0,4.2,0.3,4.8-0.1
		c0,0,0.9-1.2,1.2-1.8c0,0,2.2-0.1,2.6,0.4c0,0,3.3,2.2,15.6,1.4c0,0,1.9,0,2.3,0.5c0,0,2.3,1.8,3.7-0.1c0,0,2-0.4,8.2-0.3
		c0,0,6.7,1.8,11.3-2l1.5,0.3c0,0,1.9,3.1,3.3,2.2c0,0,4.1-0.4,4.8,0.4c0,0,1.4,2,0.7,7.4c0,0-0.8,2.3,3.1,2.3c0,0,4.5-0.8,3.9,3.4
		c0,0,1.2,4.8-6.3,4.1c0,0-1,1.4-0.8,2.3c0,0-0.1,15.5-0.3,17.3c0,0-0.1,2.5,3.1,2.3c0,0,4.4-0.3,4.5,3.7c0,0,0.5,5.2-5.7,4.2
		c0,0-1.9,0.3-2.2,1.5l-0.3,6.8c0,0,0.1,3.4-3.7,2.6c-0.5,0-21.2,0.4-23-0.1C149,91.8,148.1,91.7,147.8,92.2"/>
	<path class="st0" d="M103.9,114.9c0,0,1-0.4,1.2-1.1c0,0,2.9-0.3,3.3-0.7l9,0.7c0,0,8.8,0.7,12.6-2.1c0,0,1.4,0,2.3,0.4
		c0,0,1.9,0.4,2.4,1.2l5.2-0.1c0,0,3,1,2.7,2.9v2.4c0,0-0.5,4.9,0.8,5.2h4c0,0,3.3,1.5,2.9,3.4c0,0,0.1,2.7-2.7,3.3
		c0,0-2.9,0.8-3.8,0.7c0,0-1,1.2-1.1,2.7l-0.4,17.8c0,0-0.3,1.9,2.6,1.6c0,0,4.2-0.4,5.4,1.9c0,0,1.1,3.9-1.1,4.6l-1.6,0.8l-3.5,0.6
		c0,0-1.5,0.1-1.6,2.7v4.8c0,0,0.1,3.3-2.5,3.3l-3.8,0.3c0,0-0.9,0.8-2.9,0.3c0,0-23.1,0.4-23.9,0.1l-2.7,0.6c0,0-3,2.7-5.4,0.7
		l-1.9-1.5c0,0-1.4,0.3-1.9,0.1c-0.5-0.1-25.6,0.3-25.6,0.3s-5.3,0.6-5.7-1.2c0,0-0.7-6.9-0.4-7.8c0,0,0-2-1.2-2.2
		c0,0-5.3-0.3-5.4-0.8c0,0-2.9-2-2-4.1c0,0,1-2.7,3.8-3c0,0,4.4,0.7,4.4-0.5c0,0,0.3-0.8,0.3-2.2c0,0,0.3-16.2,0.1-17.3
		c0,0,0.4-2-1.4-2c0,0-1.9,0.5-3.1-0.3c0,0-3.3,0.1-3.9-2.5c0,0-0.5-1.6,0.3-3c0,0,1.5-3,5.9-2c0,0,2.5,0.7,2.7-1.1l-0.1-6.5
		c0,0-0.6-1.8,2.9-2.7c0,0,4.4,1.2,5.7-1c0,0,1.5-3,2.7-1c0,0,2.6,2.5,9.7,2.2c0,0,12.2-1,12.5-0.4c0,0,3,0.4,3.8,1.4L103.9,114.9z"
		/>
	<path class="st0" d="M66.9,92.2c0,0-1.5,4.8-8.2-0.1l-22.9-0.5c0,0-3,1-3.4-2.2c0,0,0.5-6.3,0.3-6.8c0,0,0.1-1.8-2.9-1.8
		c0,0-4.6,0.6-4.8-3.5c0,0-0.8-4.4,5.6-4.2c0,0,2,0.9,2.2-1.6c0,0-0.3-17.7-0.1-19.1c0,0,0.6-1.6-2.6-1.9c0,0-4.5,0.9-5-2
		c0,0-0.3-4.5,2.7-4.8c0,0,3.7,0.3,4.4-0.7c0,0,0.8,0.5,0.7-2.7l0.1-5.6c0,0,0.4-1.5,2.7-1.4c0,0,4.2,0.3,4.8-0.1
		c0,0,0.9-1.2,1.2-1.8c0,0,2.2-0.1,2.6,0.4c0,0,3.3,2.2,15.7,1.4c0,0,1.9,0,2.3,0.5c0,0,2.3,1.8,3.7-0.1c0,0,2-0.4,8.2-0.3
		c0,0,6.7,1.8,11.3-2l1.5,0.3c0,0,1.9,3.1,3.3,2.2c0,0,4.1-0.4,4.8,0.4c0,0,1.4,2,0.7,7.4c0,0-0.8,2.3,3.1,2.3c0,0,4.5-0.8,3.9,3.4
		c0,0,1.2,4.8-6.3,4.1c0,0-1,1.4-0.8,2.3c0,0-0.1,15.5-0.3,17.3c0,0-0.1,2.4,3.1,2.3c0,0,4.4-0.3,4.5,3.7c0,0,0.5,5.2-5.7,4.2
		c0,0-1.9,0.3-2.2,1.5l-0.3,6.8c0,0,0.1,3.4-3.7,2.6c-0.5,0-21.2,0.4-23-0.1C68.1,91.8,67.2,91.7,66.9,92.2"/>
	<path d="M147.8,92.2c0,0-1.5,4.8-8.2-0.1l-22.9-0.6c0,0-3,1-3.4-2.2c0,0,0.5-6.3,0.3-6.8c0,0,0.1-1.8-2.9-1.8c0,0-4.6,0.5-4.8-3.5
		c0,0-0.8-4.4,5.6-4.2c0,0,2,0.9,2.2-1.6c0,0-0.3-17.7-0.1-19c0,0,0.5-1.6-2.6-1.9c0,0-4.5,0.9-5-2c0,0-0.3-4.5,2.7-4.8
		c0,0,3.7,0.3,4.3-0.7c0,0,0.8,0.5,0.7-2.7l0.1-5.6c0,0,0.4-1.5,2.7-1.3c0,0,4.2,0.3,4.8-0.1c0,0,0.9-1.2,1.2-1.8
		c0,0,2.2-0.1,2.6,0.4c0,0,3.3,2.2,15.6,1.4c0,0,1.9,0,2.3,0.5c0,0,2.3,1.8,3.7-0.1c0,0,2-0.4,8.2-0.3c0,0,6.7,1.8,11.3-2l1.5,0.3
		c0,0,1.9,3.1,3.3,2.2c0,0,4.1-0.4,4.8,0.4c0,0,1.4,2,0.7,7.4c0,0-0.8,2.3,3.1,2.3c0,0,4.5-0.8,3.9,3.4c0,0,1.2,4.8-6.3,4.1
		c0,0-1,1.4-0.8,2.3c0,0-0.1,15.5-0.3,17.3c0,0-0.1,2.5,3.1,2.3c0,0,4.4-0.3,4.5,3.7c0,0,0.5,5.2-5.7,4.2c0,0-1.9,0.3-2.2,1.5
		l-0.3,6.8c0,0,0.1,3.4-3.7,2.6c-0.5,0-21.2,0.4-23-0.1C149,91.8,148.1,91.7,147.8,92.2"/>
	<path class="st0" d="M122.1,36.1c0,0,0.3,2.7,0.3,3.4c0,0.7-0.4,39.3-0.4,39.3s0.4,3-2.2,4.5c0,0-0.7,0.3-0.8-1.6l0.3-40.8
		C119.2,40.9,119.5,35.9,122.1,36.1"/>
	<path class="st1" d="M122.1,36.1c0,0,0.3,2.7,0.3,3.4c0,0.7-0.4,39.3-0.4,39.3s0.4,3-2.2,4.5c0,0-0.7,0.3-0.8-1.6l0.3-40.8
		C119.2,40.9,119.5,35.9,122.1,36.1z"/>
	<path class="st0" d="M117.6,83.8c0,0,0.3-38.4,0.1-39c-0.1-0.7,0.1,0.6,0.1,0.6s-0.4-6.7,1.4-9.4c0,0-0.6-2.3-3.7,0.6l-0.1,5.6
		c0,0,0,3.1-2.9,3c0,0-3.3-0.1-4.8,1.4c0,0-0.8,3,2.3,2.5c0,0,4.9,0,5.2,2L115,71.4c0,0,1.1,3.4-2.7,3.4c0,0-4.6-0.3-4.5,2.6
		c0,0,1,2.4,4.9,1.6c0,0,2.9,0.5,2.7,3.3v5.2c0,0-0.3,2.1,2.5,2.2h21.2c0,0,1.1,0.1,1.1-1.2c0,0-0.1-1.1-1.8-1.1L120.8,87
		C120.8,87,117.9,88,117.6,83.8"/>
	<path class="st0" d="M121.7,83.7c0,0-0.5,1.9,1.5,1.5h14L141,86c0,0,3.9-1,0-3.1c0,0-12.5,0.1-13.6-0.1c0,0-2.6-0.7-3.1-0.8
		C124.3,81.9,122.9,81.4,121.7,83.7"/>
	<path class="st1" d="M121.7,83.7c0,0-0.5,1.9,1.5,1.5h14L141,86c0,0,3.9-1,0-3.1c0,0-12.5,0.1-13.6-0.1c0,0-2.6-0.7-3.1-0.8
		C124.3,81.9,122.9,81.4,121.7,83.7z"/>
	<path class="st0" d="M145,85.6c0,0-2.6,0-2.5,3.4c0,0,0.3,2.6,3,2.6c0,0,2.4-0.4,2.2-3.1C147.7,88.5,146.2,85.1,145,85.6"/>
	<path class="st0" d="M146.9,84.2c0,0,1.2-1.4,2-1.4c0,0,13.6,1.2,15.9-0.4c0,0,2.1-0.4,2.6,0c0,0,2,1.6,2,2.6c0,0-0.1,1.2-2.6,0.5
		c0,0-15.4,0.1-16.2,0.1C150.7,85.8,146.4,86.7,146.9,84.2"/>
	<path class="st1" d="M146.9,84.2c0,0,1.2-1.4,2-1.4c0,0,13.6,1.2,15.9-0.4c0,0,2.1-0.4,2.6,0c0,0,2,1.6,2,2.6c0,0-0.1,1.2-2.6,0.5
		c0,0-15.4,0.1-16.2,0.1C150.7,85.8,146.4,86.7,146.9,84.2z"/>
	<path class="st0" d="M148.6,88.7c0,0,0-1.1,1.9-1.1l19-0.1c0,0,1.8,1,1.8-2.3c0,0,0.7-14.8,0.8-31.2c0-4.9,0.2-10,0.1-14.7
		c0,0-0.4-2-1-2.5c0,0,0-2.2,2.3-1.4c0,0,2,0.1,1.5,3.3l0.1,4.7c0,0-0.4,2.1,3.3,1.5c0,0,3.7,0.6,3.8,1.9c0,0,1.1,2.7-3.3,2.5h-3.1
		c0,0-1.4,0.8-0.9,2.5l-0.4,19.7c0,0-0.3,3.4,3,3.3c0,0,3.4-0.1,4.1,0.9c0,0,2.3,3.4-2.7,3.1c0,0-3.1-0.1-3.8,0.4c0,0-0.5,0.7-1,7.1
		c0,0,0.3,3.8-2.6,3.4c0,0-18.9,0.3-20.7-0.1C150.8,89.6,148.9,90.2,148.6,88.7"/>
	<path class="st0" d="M124.1,34.9l-0.4,43.7c0,0-0.1,2,3.3,2.4c0,0,3.9,0.4,4.9,0c0,0,2.6-0.1,9.3,0.1c0,0,1.6,1.6,1.8-0.4
		c0,0,1.1-35.4,0.5-42.7c0,0-0.1-3.1-2.5-3.3c0,0-10.3,0.8-11.3,0l-4.1-1.1C125.6,33.7,124,33.8,124.1,34.9"/>
	<path class="st0" d="M145.6,37.1c0,0-0.4,20.5-0.3,21.2l-0.3,17.3l-0.6,6c0,0,0.8,1.2,1.5,0.4c0,0,4.4-1.1,7.1-0.7
		c0,0,8.7,0.8,10.5-0.6c0,0,1.4,0.7,1.8-1.5c0,0,0.5-38.1,0.3-38.8c0,0,0.5-5.5,0.3-6c0,0-0.1-1.2-2.4-0.1c0,0,0.3,1.1-12.6,0.7
		C150.8,35,145.9,34.9,145.6,37.1"/>
	<path class="st0" d="M167.3,36.6l-0.1,43c0,0,1.1,3.8,2.9,3.4c0,0,0.3-0.8,0.4-2.2l0.6-41C170.9,39.8,169.6,33.3,167.3,36.6"/>
	<path class="st1" d="M167.3,36.5l-0.1,43c0,0,1.1,3.8,2.9,3.4c0,0,0.3-0.8,0.4-2.2l0.5-41C170.9,39.8,169.6,33.3,167.3,36.5z"/>
	<path d="M150.6,49.4c-0.4-1.1,2.3-1.2,2.3-1.2l1.4,0.3c1-0.1,1.9,0.3,1.9,0.3c0.9,1.5-0.7,2.3-0.7,2.3l-0.5,1.8
		c-0.1,1.5,0,14.4,0,14.4c0.3,0.7,1.4,1.9,1.4,1.9c0,1.2-1.5,1-1.5,1l-3.9,0.1c-1.2-0.1-0.8-1.5-0.8-1.5c1.4-0.7,1.8-3.1,1.8-3.1
		V52.1L150.6,49.4z"/>
	<path d="M132.3,51.3c0.1,3,0.1,7.1,0.1,7.1c2.6,2,4.1-0.8,4.1-0.8c3.4-3.3,0-6.3-0.5-7.1c-0.6-0.8-3.3-0.1-3.3-0.1L132.3,51.3z
		 M132.2,62.1l-0.3,4.2l1.2,2c0.8,1.1-0.5,1.9-0.5,1.9l-4.4-0.4c-0.8-0.4,0-1.8,0-1.8c1.1-0.7,1.2-2.5,1.2-2.5l-0.1-7.9l0.1-5.7
		c0-0.7-1.1-1.9-1.1-1.9c-0.9-0.1-0.7-1.4-0.7-1.4c0.3-0.7,2.6-0.3,2.6-0.3h5.7c5.4,1.8,4.6,5.7,4.6,5.7c0.4,3.9-3.8,5.6-3.8,5.6
		l-0.3,2.2l4,6.2c0.7,0.5,0.5,1.1,0.5,1.1c-0.5,1.5-2.7,0-2.7,0l-4.9-7.6C133,61.1,132.2,62.1,132.2,62.1"/>
	<path d="M103.9,114.9c0,0,1-0.4,1.2-1.1c0,0,2.9-0.3,3.3-0.7l9,0.7c0,0,8.8,0.7,12.6-2.1c0,0,1.4,0,2.3,0.4c0,0,1.9,0.4,2.4,1.2
		l5.2-0.1c0,0,3,1,2.7,2.9v2.4c0,0-0.5,4.9,0.8,5.2h4c0,0,3.3,1.5,2.9,3.4c0,0,0.1,2.7-2.7,3.3c0,0-2.9,0.8-3.8,0.7
		c0,0-1,1.2-1.1,2.7l-0.4,17.8c0,0-0.3,1.9,2.6,1.6c0,0,4.2-0.4,5.4,1.9c0,0,1.1,3.9-1.1,4.6l-1.6,0.8l-3.5,0.6c0,0-1.5,0.1-1.6,2.7
		v4.8c0,0,0.1,3.3-2.5,3.3l-3.8,0.3c0,0-0.9,0.8-2.9,0.3c0,0-23.1,0.4-23.9,0.1l-2.7,0.6c0,0-3,2.7-5.4,0.7l-1.9-1.5
		c0,0-1.4,0.3-1.9,0.1c-0.5-0.1-25.6,0.3-25.6,0.3s-5.3,0.6-5.7-1.2c0,0-0.7-6.9-0.4-7.8c0,0,0-2-1.2-2.2c0,0-5.3-0.3-5.4-0.8
		c0,0-2.9-2-2-4.1c0,0,1-2.7,3.8-3c0,0,4.4,0.7,4.4-0.5c0,0,0.3-0.8,0.3-2.2c0,0,0.3-16.2,0.1-17.3c0,0,0.4-2-1.4-2
		c0,0-1.9,0.5-3.1-0.3c0,0-3.3,0.1-3.9-2.5c0,0-0.5-1.6,0.3-3c0,0,1.5-3,5.9-2c0,0,2.5,0.7,2.7-1.1l-0.1-6.5c0,0-0.6-1.8,2.9-2.7
		c0,0,4.4,1.2,5.7-1c0,0,1.5-3,2.7-1c0,0,2.6,2.5,9.7,2.2c0,0,12.2-1,12.5-0.4c0,0,3,0.4,3.8,1.4L103.9,114.9z"/>
	<path class="st0" d="M107.4,168.4c0,0,1.6-0.8,2.7-0.5c1.1,0.3,17-0.1,17-0.1s6.9,0.5,8-0.4l1.6-0.5c0,0,0.7-0.8,0.7-1.9
		c0-1.1,0.1-4.8,0.1-4.8l0.4-1.4c0,0-0.1-1.4,0-37.7c0,0,0.5-2.8-1.2-4.6c0,0,0-1.1,0.5-0.9c0.6,0.1,0.3,0.1,0.3,0.1
		s2.4-0.7,2.8,0.3c0,0,1.1,3.3,0.1,5.2c0,0-0.3,4,1.8,4c0,0,0.8,0.8,2.4,0.4c0,0,3.5,0.4,3.5,1.5c0,0,0,2.5-2.5,2l-3.3,0.3
		c0,0-2.2,0.4-1.9,3c0.3,2.6-0.1,21.1-0.1,21.1s0,2.2,3.4,2c0,0,4.2-0.1,4.2,1.1c0,0,1.1,2.7-1.9,2.9c0,0-5.7-0.1-5.3,1.5
		c0,0-0.4,3.8-0.7,4.5c0,0,0.6,3.1-0.1,3.7c0,0-0.4,1.8-4.1,1.5c0,0-23.4-0.1-27.1,0.1C109,170.6,106.9,170.3,107.4,168.4"/>
	<path class="st0" d="M103.2,165.8c0,0,2.3,0.4,2.3,2.6c0,2.2,0.1,3.4-1.2,3.7c-1.4,0.3-2.8-0.1-3.2-1.9
		C100.6,168.4,101.3,166.2,103.2,165.8"/>
	<path class="st0" d="M105.9,164.7c0,0,2.4-1.6,3.4-1.4c0,0,12.4,0.8,16.2,0.1c3.8-0.7,1.5-0.1,1.5-0.1s3.3,0,4.2-1.2
		c0,0,1-0.3,1.5,0.7l2,2.2c0,0,0.2,1.3-2.2,1.2c0,0-22.2,0-22.9,0.1C109.7,166.4,105.5,167,105.9,164.7"/>
	<path class="st1" d="M105.9,164.7c0,0,2.4-1.6,3.4-1.4c0,0,12.4,0.8,16.2,0.1c3.8-0.7,1.5-0.1,1.5-0.1s3.3,0,4.2-1.2
		c0,0,1-0.3,1.5,0.7l2,2.2c0,0,0.1,1.4-2.2,1.2c0,0-22.2,0-22.9,0.1C109.7,166.4,105.5,167,105.9,164.7z"/>
	<path class="st0" d="M73.7,116.4c0,0,1,0,0.8,1.6l-0.3,41.1c0,0,0.4,2.7-1.9,4.5c0,0-1.2,1.5-1.2-0.8l0.6-41.9
		C71.6,120.9,71.8,117.8,73.7,116.4"/>
	<path class="st1" d="M73.7,116.4c0,0,1,0,0.8,1.6l-0.3,41.1c0,0,0.4,2.7-1.9,4.5c0,0-1.2,1.5-1.2-0.8l0.6-41.9
		C71.6,120.9,71.8,117.8,73.7,116.4z"/>
	<path class="st0" d="M71.5,116.7c0,0-1.6,3-1.5,3.7l-0.1,9.1c0,0-0.1,5.8,0,6.5c0.1,0.7-0.1,17.8-0.1,17.8s-0.1,3.3,0,4.4v7.3
		c0,0-0.3,3.3,2.2,2.4c0,0,23.9-0.5,25.4-0.1c0,0,2.2,0.4,1.4,1.5c0,0,0,1-1.5,0.7c0,0-11.3,1.1-21.5,0.7c0,0-6.8,0.4-7.2-0.4
		c0,0-1.1-0.1-1.1-4.1c0,0,0-3.7-0.3-4.3c0,0,0.3-1.9-3.1-2.3c0,0-4.8,0.8-4.9-2c0,0,0.7-2,5.3-1.8c0,0,3.4,0.5,2.7-2.2l0.4-20.1
		c0,0,0.4-3.6-1.9-3.7c0,0-2.2-0.1-2.9,0.1c0,0-3.9,0-3.7-2.3c0,0,1.4-2.5,5.3-1.9c0,0,3,0.5,3.1-2.9c0,0-0.1-6.9,1.5-7.2
		C69,115.6,72.5,115.7,71.5,116.7"/>
	<path class="st0" d="M75.6,161.7c0,0,1.9,2,5,1.9l18.5,0.3c0,0,2.1,0.1,1.9,1.2c0,0-0.3,1.6-2.7,1.1L76,165.9l-2.5,0.1
		c0,0-1.6-0.3,1-3.4L75.6,161.7z"/>
	<path class="st1" d="M75.6,161.7c0,0,1.9,2,5,1.9l18.5,0.3c0,0,2,0.1,1.9,1.2c0,0-0.3,1.6-2.7,1.1L76,166l-2.5,0.1
		c0,0-1.6-0.3,1-3.4L75.6,161.7z"/>
	<path class="st0" d="M132.7,159.9c0,0,1.6,3.1,2.5,3.6c0,0,1.5,1.8,1.1-1.4l0.3-39.2c0,0-0.4-1.4,0-3.5l-1.6-3c0,0-1.8-1.4-1.8,0.8
		l-0.3,41.8L132.7,159.9z"/>
	<path class="st1" d="M132.7,160c0,0,1.6,3.1,2.5,3.6c0,0,1.5,1.8,1.1-1.4l0.3-39.2c0,0-0.4-1.4,0-3.5l-1.6-3c0,0-1.8-1.4-1.8,0.8
		l-0.3,41.8L132.7,160z"/>
	<path class="st0" d="M102.5,141.3c0,0,0.1,3.3-0.3,6.4c-0.2,1.7,0.6,9.7-0.1,13.7c0,0-0.1,1.4-3,0.1c0,0-17.4,0.4-18-0.1
		c0,0-4.8,0.1-5.2-2.3c0,0,0.7-18.6,0.3-19.3c0,0-0.3-10.2,0-11.1c0,0,0.4-9.4,0.1-10.5c0,0,0.1-2.2-0.3-3.3c0,0,0-1.4,2.3-0.5
		c0,0,0.8,1.5,5.3,0.8c0,0,3.3,0.5,6.4,0.1c0,0,6.9-0.5,8.7,0c0,0,2.7-0.5,3.5,2.5l-0.1,8.4l0.8,2.7l1-0.7l0.4-2l0.1-9
		c0,0,0.5-1.6,2.7-1.9c0,0,3.4-0.4,4-0.1c0.5,0.3,7.9,0.7,9.9,0.3c2-0.4,2.4,1.4,8.6-1.8c0,0,1.6,0.1,1.6,1.2c0,0-0.6,11.6,0,13.7
		c0,0,0,21.2-0.4,22.7l0.3,6.8c0,0,0.3,3-4.5,3.3c0,0,3,0.4-15.8-0.1c0,0-3-0.1-6.3,1.4c0,0-0.7-0.1-0.7-1.9c0,0,0.5-6.4,0-12.7
		l-0.3-6.9L102.5,141.3z"/>
	<path d="M90.3,131.7c0,0,0.4,10.1,0,11.4l-0.1,2.2c0,0,0.5,1.5,1.4,2c0,0,0.7,1.9-1,1.8c0,0-3.4-0.3-4.2-0.1c0,0-1.9,0,0-2.4
		c0,0,0.7-1,0.5-3.4c0,0,0-11.4,0.3-12.1c0,0,0.3-1.5-0.7-1.9l-1.6,0.1l-2,1.9c0,0-0.4,2-1.4-0.1v-1.1l1.2-3.3l0.8-0.1
		c0,0,1.2,0.8,2.3,1.1h6.4l2.3-1.1c0,0,0.9,0.1,0.7,1.4c0,0,0.4,3.1-1.4,3.5c0,0-1.1-0.4-1.6-1.9C92.2,129.5,90.4,128.5,90.3,131.7"
		/>
	<path d="M120.3,128c0,0-5.2-0.4-5.3,5.2c0,0-0.6,3.8,5.2,6.3c0,0,4.2,2,3.9,4.6c0,0-0.5,4.6-5,2.3c0,0-2.2-1.1-2-2.3
		c0,0-0.7-1.5-1.5-1.2c0,0-1,0.3-0.5,4.8c0,0,0,1.8,2,0l1.1,0.3c0,0,3.7,3,6.8-0.7c0,0,3.4-3.1,1-6.9c0,0-1.8-2.7-4.9-4.1
		c0,0-3-1.4-3.7-3.7c0,0,1-4.1,4.6-1.9c0,0,1.4,1.6,2.2,1.9c0,0,1.1,0,0.8-2.5l-0.3-2c0,0-0.3-1.5-2.2,0
		C122.5,128,120.7,128.7,120.3,128"/>
	<path d="M101.6,134.1c-0.1,0.7-1.1,4.5-1.1,4.5l0.8,1.4c0,0,2.2,0.1,3,0.1c0.8,0,1-0.7,1-1.4c0-0.7-1.5-4.8-1.5-4.8l-0.7-0.8
		L101.6,134.1z M103.7,125.1c0.9,0.7,1.1,2,1.1,2c2.7,7.2,5,17.7,5,17.7c0.7,1.3,1.9,2.4,1.9,2.4c2.3,0.8,0,1.5,0,1.5
		c-1,0.4-4.1-0.1-4.1-0.1c-1.6-0.3-1-0.8-1-0.8c0.7-0.7,0.1-3.4,0.1-3.4c-0.1-1.1-1.4-2.9-1.4-2.9c-0.5-0.3-1.5,0.9-1.5,0.9
		s-1.5,0.5-1.6,0c-0.1-0.6-1.1-1.1-1.1-1.1c-1.6,0-2.3,4.1-2.3,4.1c0.9,3.4,0,2.9,0,2.9c-0.8,1.1-3.4,0.3-3.4,0.3
		c-1.2-0.3-0.4-1.2-0.4-1.2c1.5-0.3,1.9-1.9,1.9-1.9c0.7-0.9,5-18.6,5-18.6C102.5,126.1,102.8,124.5,103.7,125.1"/>
	<path d="M66.9,92.2c0,0-1.5,4.8-8.2-0.1l-22.9-0.5c0,0-3,1-3.4-2.2c0,0,0.5-6.3,0.3-6.8c0,0,0.1-1.8-2.9-1.8c0,0-4.6,0.6-4.8-3.5
		c0,0-0.8-4.4,5.6-4.2c0,0,2,0.9,2.2-1.6c0,0-0.3-17.7-0.1-19.1c0,0,0.6-1.6-2.6-1.9c0,0-4.5,0.9-5-2c0,0-0.3-4.5,2.7-4.8
		c0,0,3.7,0.3,4.4-0.7c0,0,0.8,0.5,0.7-2.7l0.1-5.6c0,0,0.4-1.5,2.7-1.4c0,0,4.2,0.3,4.8-0.1c0,0,0.9-1.2,1.2-1.8
		c0,0,2.2-0.1,2.6,0.4c0,0,3.3,2.2,15.7,1.4c0,0,1.9,0,2.3,0.5c0,0,2.3,1.8,3.7-0.1c0,0,2-0.4,8.2-0.3c0,0,6.7,1.8,11.3-2l1.5,0.3
		c0,0,1.9,3.1,3.3,2.2c0,0,4.1-0.4,4.8,0.4c0,0,1.4,2,0.7,7.4c0,0-0.8,2.3,3.1,2.3c0,0,4.5-0.8,3.9,3.4c0,0,1.2,4.8-6.3,4.1
		c0,0-1,1.4-0.8,2.3c0,0-0.1,15.5-0.3,17.3c0,0-0.1,2.4,3.1,2.3c0,0,4.4-0.3,4.5,3.7c0,0,0.5,5.2-5.7,4.2c0,0-1.9,0.3-2.2,1.5
		l-0.3,6.8c0,0,0.1,3.4-3.7,2.6c-0.5,0-21.2,0.4-23-0.1C68.1,91.8,67.2,91.7,66.9,92.2"/>
	<path class="st0" d="M41.2,36.2c0,0,0.3,2.7,0.3,3.4c0,0.7-0.4,39.3-0.4,39.3s0.4,3-2.2,4.5c0,0-0.7,0.3-0.8-1.6l0.3-40.8
		C38.3,40.9,38.6,35.9,41.2,36.2"/>
	<path class="st1" d="M41.2,36.1c0,0,0.3,2.7,0.3,3.4S41,78.9,41,78.9s0.4,3-2.2,4.5c0,0-0.7,0.3-0.8-1.6l0.3-40.8
		C38.3,40.9,38.6,35.9,41.2,36.1z"/>
	<path class="st0" d="M36.7,83.8c0,0,0.3-38.4,0.1-39c-0.1-0.7,0.1,0.6,0.1,0.6s-0.4-6.7,1.4-9.4c0,0-0.5-2.3-3.7,0.5L34.5,42
		c0,0,0,3.1-2.9,3c0,0-3.3-0.1-4.8,1.4c0,0-0.8,3,2.3,2.5c0,0,4.9,0,5.2,2l-0.3,20.5c0,0,1.1,3.4-2.7,3.4c0,0-4.6-0.3-4.5,2.6
		c0,0,1,2.5,4.9,1.6c0,0,2.9,0.5,2.7,3.3v5.2c0,0-0.3,2,2.4,2.2h21.2c0,0,1.1,0.1,1.1-1.2c0,0-0.1-1.1-1.8-1.1L39.8,87
		C39.8,87,36.9,88,36.7,83.8"/>
	<path class="st0" d="M40.4,84c0,0-0.5,1.9,1.5,1.5h14l3.8,0.8c0,0,4-0.9,0-3.1c0,0-12.5,0.1-13.6-0.1c0,0-2.6-0.7-3.1-0.8
		C42.9,82.3,41.6,81.7,40.4,84"/>
	<path class="st1" d="M40.4,84c0,0-0.5,1.9,1.5,1.5h14l3.8,0.8c0,0,4-0.9,0-3.1c0,0-12.5,0.1-13.6-0.1c0,0-2.6-0.7-3.1-0.8
		C42.9,82.3,41.6,81.7,40.4,84z"/>
	<path class="st0" d="M63.6,85.9c0,0-2.6,0-2.5,3.4c0,0,0.3,2.6,3,2.6c0,0,2.5-0.4,2.2-3.1C66.3,88.8,64.8,85.4,63.6,85.9"/>
	<path class="st0" d="M65.5,84.6c0,0,1.2-1.4,2-1.4c0,0,13.6,1.2,15.9-0.4c0,0,2-0.4,2.6,0c0,0,2,1.6,2,2.6c0,0-0.1,1.2-2.6,0.6
		c0,0-15.4,0.1-16.2,0.1C69.3,86.1,65.1,87,65.5,84.6"/>
	<path class="st1" d="M65.5,84.6c0,0,1.2-1.4,2-1.4c0,0,13.6,1.2,15.9-0.4c0,0,2.1-0.4,2.6,0c0,0,2,1.6,2,2.6c0,0-0.1,1.2-2.6,0.6
		c0,0-15.4,0.1-16.2,0.1C69.3,86.1,65.1,87,65.5,84.6z"/>
	<path class="st0" d="M67.7,88.7c0,0,0-1.1,1.9-1.1l19.1-0.1c0,0,1.8,0.9,1.8-2.3c0,0,0.7-14.8,0.8-31.2c0-4.9,0.2-10,0.1-14.7
		c0,0-0.4-2-0.9-2.5c0,0,0-2.2,2.3-1.4c0,0,2,0.1,1.5,3.3l0.1,4.8c0,0-0.4,2,3.3,1.5c0,0,3.7,0.5,3.8,1.9c0,0,1.1,2.7-3.2,2.5h-3.1
		c0,0-1.4,0.8-1,2.5l-0.4,19.7c0,0-0.3,3.4,3,3.3c0,0,3.4-0.1,4.1,0.9c0,0,2.3,3.4-2.7,3.1c0,0-3.1-0.1-3.8,0.4c0,0-0.5,0.7-0.9,7.1
		c0,0,0.3,3.8-2.6,3.4c0,0-18.9,0.3-20.7-0.1C69.9,89.6,68,90.2,67.7,88.7"/>
	<path class="st0" d="M43.2,34.9l-0.4,43.7c0,0-0.1,2,3.3,2.4c0,0,4,0.4,4.9,0c0,0,2.6-0.1,9.2,0.1c0,0,1.6,1.6,1.8-0.4
		c0,0,1.1-35.4,0.5-42.7c0,0-0.1-3.1-2.5-3.3c0,0-10.3,0.8-11.3,0l-4.1-1.1C44.7,33.7,43.1,33.8,43.2,34.9"/>
	<path class="st0" d="M86.3,36.5l-0.1,43c0,0,1.1,3.8,2.9,3.4c0,0,0.3-0.8,0.4-2.2l0.6-41C90,39.8,88.7,33.3,86.3,36.5"/>
	<path class="st1" d="M86.3,36.5l-0.1,43c0,0,1.1,3.8,2.9,3.4c0,0,0.3-0.8,0.4-2.2l0.6-41C90,39.8,88.7,33.3,86.3,36.5"/>
	<path class="st1" d="M86.3,36.5l-0.1,43c0,0,1.1,3.8,2.9,3.4c0,0,0.3-0.8,0.4-2.2l0.6-41C90,39.8,88.7,33.3,86.3,36.5z"/>
	<path class="st0" d="M64.7,36.9c0,0-0.4,20.5-0.3,21.2l-0.3,17.3l-0.6,6c0,0,0.8,1.2,1.5,0.4c0,0,4.4-1.1,7.1-0.7
		c0,0,8.7,0.8,10.5-0.5c0,0,1.4,0.7,1.8-1.5c0,0,0.5-38.1,0.3-38.8c0,0,0.5-5.4,0.3-6c0,0-0.1-1.2-2.4-0.2c0,0,0.3,1.1-12.7,0.7
		C69.9,34.9,65,34.7,64.7,36.9"/>
	<path d="M60.5,49.5l-1.2,2.6c0,0-3,13.2-4.6,15.9c0,0-0.3,2.7-2.6,0.5c0,0-5.3-16.7-5.6-17.3L44.7,50c0,0-1.1-1.5,0.8-1.6l5,0.1
		c0,0,1.6,1.4-0.5,2.9c0,0,0.3,2.2,3.1,10.5c0,0,0.8,3.1,1.8,0.8l2.7-9.7l-0.8-2.9c0,0-0.8-1.4,0.4-1.5
		C57.3,48.7,60.1,48.4,60.5,49.5"/>
	<path d="M68.4,51.7l-0.1,14.4l-0.4,1.1c0,0-1.4,1.8-0.4,1.9c0,0-1.2,0.8,8.7,1c0,0,3.8,0.7,2.9-4.2c0,0-0.4-1.8-1.8,0.8
		c0,0-0.4,2.2-5.3,1.5c0,0-1.1-0.9-1.1-2v-6c0,0-0.1-1.5,2.2-1.3c0,0,2.6,1.6,3,0.9c0,0,0.9-2.2,0-3.5c0,0-1.2-0.1-1.4,0.4
		c0,0-0.8,1.6-3.1,0.7c0,0-1.1-2.2-0.4-3.9c0,0-0.3-3.4,2-3.1c0,0,2.7,0.5,3,1.4c0,0,0.7,1.6,1.4-0.3L76.8,49c0,0-0.4-1-1.1-0.7
		c0,0-4.6,0.7-5.2,0.1l-3.7,0.4c0,0-0.5,1.4,1.1,2C68,50.9,68.4,51.1,68.4,51.7"/>
</g>
</svg>
