<?xml version="1.0" encoding="UTF-8"?><svg id="Layer_2" xmlns="http://www.w3.org/2000/svg" viewBox="0 0 2215.03 773.59"><g id="Layer_1-2"><path d="m1100.15,711.85c-.25,3.02-.25,4.79-.25,6.8,0,17.64,8.06,34.27,39.81,34.27,26.21,0,39.06-11.59,39.06-27.97,0-13.36-7.81-20.41-25.45-25.7l-34.77-10.58c-22.43-6.81-39.56-19.91-39.56-45.86s21.67-48.13,60.98-48.13c50.9,0,59.47,28.72,59.47,47.37,0,2.77,0,5.8-.51,8.82l-23.69.51c.25-2.77.25-4.79.25-6.55,0-15.37-6.05-29.48-36.54-29.48-25.45,0-35.53,11.34-35.53,27.22s11.34,21.42,25.7,25.7l34.52,10.33c26.46,7.81,39.82,21.92,39.82,46.37,0,26.71-21.17,48.63-64.01,48.63-54.68,0-63.75-31.24-63.75-52.16,0-2.52,0-5.54.5-8.31l23.94-1.26Zm143.14-47.37h-23.18v-16.88h24.19l3.02-27.97h19.4v27.97h44.09v16.88h-44.09v71.06c0,12.6,4.79,18.39,17.13,18.39,7.81,0,17.64-2.77,25.71-7.05l2.27,20.66c-8.57,3.53-21.42,6.05-33.26,6.05-24.95,0-35.28-12.09-35.28-36.54v-72.57Zm196.56,106.59h-16.88l-3.78-17.14h-1.51c-7.06,9.83-19.15,19.66-39.06,19.66-25.95,0-43.34-13.86-43.34-49.14v-76.85h23.69v74.59c0,26.71,10.84,33.01,26.21,33.01,13.1,0,24.19-7.31,30.99-17.39v-90.21h23.69v123.47Zm141.38,0h-17.89l-3.78-12.09h-1.51c-5.8,5.79-16.13,14.61-37.05,14.61-29.23,0-50.65-21.17-50.65-64.51s22.18-64,50.65-64c17.64,0,29.24,6.8,35.53,13.36h1.26v-68.8h23.43v181.43Zm-23.43-95c-7.56-7.56-18.14-12.6-28.48-12.6-20.16,0-34.77,10.33-34.77,45.36s13.36,46.37,34.77,46.37c13.36,0,22.93-6.05,28.48-12.6v-66.53Zm60.73-77.36h23.69v26.2h-23.69v-26.2Zm0,48.89h23.69v123.47h-23.69v-123.47Zm111.13-2.52c33.01,0,53.42,20.16,53.42,46.62,0,5.54-.5,13.6-1.26,19.15h-86.68c0,29.48,10.84,44.61,34.27,44.61s29.48-14.37,29.48-22.43c0-1,0-2.27-.25-4.28l22.93,1c.25,1.52.25,3.28.25,4.54,0,11.09-6.81,39.31-52.42,39.31-37.29,0-57.2-23.43-57.2-64.51,0-36.54,18.39-64,57.45-64Zm31,49.64c.25-1.76.25-3.27.25-4.03,0-19.15-16.13-27.97-31.25-27.97-19.65,0-32,11.59-33.51,32h64.51Zm67.29,33.26c-.25,2.01-.25,3.78-.25,5.04,0,10.33,3.78,22.43,30.23,22.43,17.64,0,26.46-7.56,26.46-17.64,0-10.58-9.83-14.11-20.92-16.88l-17.89-4.29c-23.94-5.8-37.55-15.37-37.55-36.03s16.38-35.53,49.39-35.53c40.82,0,47.88,22.43,47.88,36.54,0,2.02,0,4.04-.51,6.55l-21.17.51c.25-2.02.25-3.78.25-5.04,0-9.58-4.79-20.16-27.47-20.16-17.89,0-25.71,8.06-25.71,17.14,0,11.84,10.84,15.12,22.43,17.64l18.14,4.04c25.2,5.54,36.29,15.62,36.29,35.52,0,18.4-16.13,35.78-50.14,35.78-44.61,0-52.16-24.7-52.16-39.56,0-2.01.25-3.78.51-5.04l22.18-1.01Zm-726.03-280.7c0,46.36,21.92,69.29,54.68,69.29,29.24,0,44.86-14.87,44.86-40.57v-3.53l24.44,1.01c.25,2.27.25,4.03.25,5.8,0,38.04-27.72,57.95-69.8,57.95-48.13,0-79.88-31.75-79.88-89.96s31.75-88.95,79.88-88.95c59.97,0,69.8,37.3,69.8,57.2,0,2.02,0,4.04-.25,6.55l-24.44,1.01v-3.78c0-25.95-15.62-40.32-44.86-40.32-32.5,0-54.68,23.43-54.68,68.29Zm259.56,87.44h-16.88l-3.78-17.14h-1.52c-7.05,9.83-19.15,19.66-39.05,19.66-25.96,0-43.34-13.86-43.34-49.14v-76.85h23.69v74.59c0,26.71,10.84,33.01,26.2,33.01,13.1,0,24.19-7.31,31-17.39v-90.21h23.69v123.47Zm60.99,0h-23.69v-123.47h17.13l3.28,16.38h1.52c5.54-8.57,13.36-18.9,32-18.9,19.9,0,30.49,14.61,30.49,36.28,0,4.04-.5,8.32-1.26,11.85l-21.67-1.26c.51-3.27.76-6.8.76-9.57,0-12.34-5.54-18.65-14.62-18.65-12.6,0-20.66,11.09-23.94,19.66v87.69Zm83.17-78.87c-.51-2.77-.76-6.8-.76-9.07,0-23.19,15.87-38.05,49.9-38.05,39.31,0,49.39,20.91,49.39,43.09v60.47c0,4.04,2.01,5.54,5.54,5.54,2.27,0,4.79-.51,6.8-1.26l1.01,17.89c-3.78,1.52-10.08,2.77-15.62,2.77-14.87,0-18.39-9.07-18.9-19.15h-1.52c-4.28,5.04-20.91,19.15-43.34,19.15s-37.8-10.33-37.8-34.02,22.18-39.57,80.64-39.81v-14.62c0-12.1-8.32-22.18-26.71-22.18s-26.71,5.54-26.71,19.15c0,1.76.25,4.79.5,7.56l-22.42,2.52Zm38.05,63.25c14.36,0,28.72-7.31,37.29-17.39v-23.18c-43.85.25-56.95,9.83-56.95,22.93,0,11.59,7.31,17.64,19.66,17.64Zm107.1-90.97h-23.18v-16.88h24.19l3.02-27.97h19.4v27.97h44.1v16.88h-44.1v71.06c0,12.6,4.79,18.39,17.14,18.39,7.81,0,17.64-2.77,25.7-7.05l2.27,20.66c-8.57,3.53-21.42,6.05-33.26,6.05-24.95,0-35.28-12.09-35.28-36.54v-72.57Zm145.16-19.4c38.55,0,58.96,24.7,58.96,64.51s-20.41,64-58.96,64-58.96-24.44-58.96-64,19.9-64.51,58.96-64.51Zm34.77,64.51c0-33.77-13.1-46.11-34.77-46.11s-35.03,12.34-35.03,46.11,12.85,45.61,35.03,45.61,34.77-12.35,34.77-45.61Zm77.87,61.48h-23.69v-123.47h17.14l3.27,16.38h1.52c5.54-8.57,13.36-18.9,32-18.9,19.91,0,30.49,14.61,30.49,36.28,0,4.04-.51,8.32-1.26,11.85l-21.67-1.26c.51-3.27.76-6.8.76-9.57,0-12.34-5.54-18.65-14.62-18.65-12.6,0-20.66,11.09-23.94,19.66v87.69Zm85.94-172.36h23.69v26.2h-23.69v-26.2Zm0,48.89h23.69v123.47h-23.69v-123.47Zm57.96,44.6c-.51-2.77-.76-6.8-.76-9.07,0-23.19,15.87-38.05,49.9-38.05,39.31,0,49.39,20.91,49.39,43.09v60.47c0,4.04,2.02,5.54,5.54,5.54,2.27,0,4.79-.51,6.81-1.26l1,17.89c-3.78,1.52-10.08,2.77-15.62,2.77-14.86,0-18.39-9.07-18.9-19.15h-1.51c-4.29,5.04-20.91,19.15-43.34,19.15s-37.8-10.33-37.8-34.02,22.18-39.57,80.64-39.81v-14.62c0-12.1-8.32-22.18-26.71-22.18s-26.71,5.54-26.71,19.15c0,1.76.25,4.79.51,7.56l-22.43,2.52Zm38.05,63.25c14.37,0,28.72-7.31,37.29-17.39v-23.18c-43.85.25-56.95,9.83-56.95,22.93,0,11.59,7.31,17.64,19.66,17.64Zm100.8-165.81h23.69v181.43h-23.69v-181.43Zm-258.56-37.54c-4.79,27.72-15.87,35.53-31.5,35.53-5.04,0-13.1-2.27-17.14-5.54l4.04-14.61c2.52,2.52,7.31,5.54,12.85,5.54,4.79,0,12.1-4.04,15.12-21.17l21.67-126.5h-17.38l2.77-14.11h17.13l4.54-23.18c4.28-21.42,14.36-37.29,35.03-37.29,7.31,0,14.11,2.01,19.65,6.05l-6.04,15.12c-5.05-4.54-10.34-6.3-14.87-6.3-7.05,0-14.11,5.29-17.13,22.43l-4.04,23.18h29.48l-2.77,14.11h-29.23l-22.18,126.75Zm111.89-143.38c23.18,0,36.04,17.89,36.04,45.36,0,50.9-18.4,83.15-53.67,83.15-22.93,0-35.78-17.64-35.78-44.85,0-50.65,17.89-83.66,53.42-83.66Zm18.39,45.1c0-20.91-7.05-30.24-18.9-30.24-23.43,0-35.28,24.44-35.28,68.79,0,20.66,6.81,29.98,18.65,29.98,22.68,0,35.53-23.43,35.53-68.54Zm67.29,17.39l-11.34,63.5h-17.64l17.39-99.79c.25-1.76.5-3.53.5-5.54,0-3.78-1.76-5.79-4.79-5.79s-5.8,1.51-7.81,3.02l1.76-14.86c2.02-1.01,7.06-3.02,12.1-3.02,9.83,0,14.11,5.04,14.11,15.12,0,2.77-.51,6.3-1.01,8.57h1.01c5.54-11.84,13.1-23.69,26.46-23.69s18.65,9.58,18.65,24.95c0,7.06-2.01,14.11-4.04,19.91l-16.13-1.01c2.27-6.05,3.53-11.59,3.53-17.64s-2.52-11.09-7.81-11.09c-9.07,0-19.4,16.88-24.95,47.37Zm-1028.44-23.94c0,46.37,21.92,69.3,54.68,69.3,29.24,0,44.86-14.87,44.86-40.57v-3.53l24.44,1.01c.25,2.27.25,4.03.25,5.79,0,38.05-27.72,57.96-69.8,57.96-48.13,0-79.88-31.75-79.88-89.96s31.75-88.95,79.88-88.95c59.97,0,69.8,37.3,69.8,57.2,0,2.01,0,4.03-.25,6.55l-24.44,1.01v-3.78c0-25.96-15.62-40.32-44.86-40.32-32.5,0-54.68,23.43-54.68,68.29Zm206.65-38.55c33.01,0,53.42,20.16,53.42,46.62,0,5.54-.51,13.61-1.26,19.15h-86.68c0,29.48,10.84,44.6,34.27,44.6s29.48-14.37,29.48-22.43c0-1.01,0-2.27-.25-4.28l22.93,1.01c.25,1.51.25,3.27.25,4.53,0,11.09-6.8,39.31-52.41,39.31-37.29,0-57.2-23.43-57.2-64.51,0-36.54,18.39-64,57.46-64Zm30.99,49.64c.25-1.76.25-3.28.25-4.03,0-19.15-16.13-27.97-31.24-27.97-19.66,0-32.01,11.59-33.52,32h64.51Zm52.42-47.12h17.14l3.53,17.13h1.51c7.31-9.83,19.4-19.65,39.06-19.65,26.2,0,43.34,13.86,43.34,49.14v76.86h-23.69v-74.59c0-26.71-10.58-33.01-26.2-33.01-13.1,0-24.19,7.31-31,17.39v90.21h-23.69v-123.47Zm148.69,16.88h-23.19v-16.88h24.19l3.02-27.97h19.4v27.97h44.09v16.88h-44.09v71.06c0,12.6,4.79,18.4,17.13,18.4,7.82,0,17.64-2.77,25.71-7.06l2.27,20.66c-8.57,3.53-21.42,6.05-33.26,6.05-24.94,0-35.27-12.1-35.27-36.54v-72.57Zm143.63-19.4c33.01,0,53.42,20.16,53.42,46.62,0,5.54-.5,13.61-1.26,19.15h-86.68c0,29.48,10.84,44.6,34.27,44.6s29.48-14.37,29.48-22.43c0-1.01,0-2.27-.25-4.28l22.93,1.01c.25,1.51.25,3.27.25,4.53,0,11.09-6.81,39.31-52.42,39.31-37.29,0-57.2-23.43-57.2-64.51,0-36.54,18.39-64,57.45-64Zm31,49.64c.25-1.76.25-3.28.25-4.03,0-19.15-16.13-27.97-31.25-27.97-19.65,0-32,11.59-33.51,32h64.51Zm76.11,76.35h-23.69v-123.47h17.14l3.27,16.38h1.52c5.54-8.57,13.36-18.9,32-18.9,19.91,0,30.49,14.61,30.49,36.29,0,4.03-.51,8.32-1.26,11.84l-21.67-1.26c.51-3.28.76-6.8.76-9.58,0-12.35-5.54-18.65-14.62-18.65-12.6,0-20.66,11.09-23.94,19.65v87.69Zm-990.28,471.29v-61.24c0-39.81,14.37-59.47,45.61-59.47,22.18,0,36.04,16.38,39.06,28.98h1.51c2.77-12.86,12.1-32,40.32-32,31.25,0,47.37,22.17,47.37,62.99v60.73h-173.87Zm76.35-55.19c0-30.99-10.84-39.81-29.23-39.81-16.63,0-26.96,9.83-26.96,37.04v34.02h56.2v-31.24Zm77.36-3.02c0-28.47-8.57-40.07-29.73-40.07-17.64,0-27.97,10.58-27.97,41.08v33.26h57.7v-34.27Zm-105.83-148.69c0-33.01,20.16-53.42,46.62-53.42,5.54,0,13.61.5,19.15,1.26v86.68c29.48,0,44.6-10.84,44.6-34.27s-14.37-29.48-22.43-29.48c-1.01,0-2.27,0-4.28.25l1.01-22.93c1.51-.25,3.27-.25,4.53-.25,11.09,0,39.31,6.81,39.31,52.42,0,37.29-23.43,57.2-64.51,57.2-36.54,0-64-18.39-64-57.45Zm49.64-31c-1.76-.25-3.28-.25-4.03-.25-19.15,0-27.97,16.13-27.97,31.25,0,19.65,11.59,32,32,33.51v-64.51Zm76.35-76.11v23.69h-123.47v-17.14l16.38-3.27v-1.52c-8.57-5.54-18.9-13.36-18.9-32,0-19.91,14.61-30.49,36.29-30.49,4.03,0,8.32.51,11.84,1.26l-1.26,21.67c-3.28-.51-6.8-.76-9.58-.76-12.35,0-18.65,5.54-18.65,14.62,0,12.6,11.09,20.66,19.65,23.94h87.69Zm-181.43-87.19v-23.69h181.43v23.69h-181.43Zm9.07-62.25v-23.69h26.21v23.69h-26.21Zm48.89,0v-23.69h123.47v23.69h-123.47Zm0-60.74v-17.13l17.13-3.53v-1.51c-9.83-7.31-19.65-19.4-19.65-39.06,0-26.2,13.86-43.34,49.14-43.34h76.86v23.69h-74.59c-26.71,0-33.01,10.58-33.01,26.21,0,13.1,7.31,24.19,17.39,30.99h90.21v23.69h-123.47ZM200.46,415.26c91.53.51,130.91,40.39,130.91,132.95v95.11c-1.02,90.51-40.91,129.88-130.4,129.88H1.53v-60.85c14.83-2.56,27.61-4.09,37.33-5.63v-225c-11.76-1.53-23.01-3.07-38.86-5.63v-60.85h200.46Zm46.02,124.25c0-35.28-19.43-54.72-54.72-54.72h-67.5v218.86h67.5c34.77,0,54.2-18.92,54.72-53.18v-110.97Zm417.3-13.29h-53.18l-10.23-42.95h-105.34v74.15h85.91v73.12h-85.91v74.66h107.9l10.23-42.95h53.18v110.97h-293.01v-60.85c15.34-2.05,27.1-3.58,36.31-5.12v-226.02c-11.25-1.53-21.99-2.56-37.84-5.12v-60.85h291.99v110.96ZM378.92,66.99c-13.3,2.56-26.08,4.09-38.35,5.63v291.48h-87.95L114.04,147.27v151.87c9.72,1.02,19.43,2.56,29.66,4.09v60.85H1.53v-60.85c12.79-2.04,25.06-4.09,37.33-5.11V73.12L0,66.99V6.14h118.13l147.27,225.51V71.08c-9.72-1.02-19.95-2.56-30.68-4.09V6.14h144.2v60.85Zm162.64,303.75c-92.56,0-136.53-52.67-137.55-142.67v-82.33C404.01,53.18,447.98,0,541.56,0h50.11c91.53,0,134.49,53.69,134.49,145.74v81.82c0,90.51-44.49,143.18-134.49,143.18h-50.11Zm40.91-76.19c40.91,0,57.78-14.83,58.29-60.34v-96.65c0-46.54-16.88-61.88-58.29-61.88h-35.8c-40.91,0-57.27,20.45-57.27,61.88v96.65c0,45.51,16.36,60.34,57.27,60.34h35.8Z"/></g></svg>